<?xml version="1.0" encoding="UTF-8" standalone="no"?>
<!-- Created with Inkscape (http://www.inkscape.org/) -->

<svg
   xmlns:dc="http://purl.org/dc/elements/1.1/"
   xmlns:cc="http://creativecommons.org/ns#"
   xmlns:rdf="http://www.w3.org/1999/02/22-rdf-syntax-ns#"
   xmlns:svg="http://www.w3.org/2000/svg"
   xmlns="http://www.w3.org/2000/svg"
   xmlns:sodipodi="http://sodipodi.sourceforge.net/DTD/sodipodi-0.dtd"
   xmlns:inkscape="http://www.inkscape.org/namespaces/inkscape"
   width="94.130287mm"
   height="114.66792mm"
   viewBox="0 0 94.130287 114.66792"
   version="1.1"
   id="svg1652"
   inkscape:version="0.92.5 (2060ec1f9f, 2020-04-08)"
   sodipodi:docname="icone_drenagem.svg">
  <defs
     id="defs1646">
    <clipPath
       clipPathUnits="userSpaceOnUse"
       id="clipPath3110">
      <g
         id="use3112"
         inkscape:label="Clip">
        <path
           style="fill:#ffffff;stroke-width:0.19323944"
           d="m -99.68392,184.68359 c -2.38113,-0.86762 -3.42961,-2.76408 -3.42961,-6.20338 v -1.39667 l -0.91788,-0.34425 c -0.50484,-0.18933 -1.31717,-0.54347 -1.80519,-0.78697 l -0.88729,-0.44271 -1.23834,1.25016 c -1.54484,1.55957 -2.77262,2.20365 -4.20076,2.20365 -2.12758,0 -2.28568,-0.10588 -6.74865,-4.51938 -3.57474,-3.53513 -4.15713,-4.19525 -4.49282,-5.09245 -0.80712,-2.15721 -0.3653,-3.72018 1.64698,-5.82641 l 1.42939,-1.49613 -0.75119,-1.82281 -0.75118,-1.82282 -2.18759,-0.10697 c -2.30986,-0.11297 -2.84325,-0.28236 -4.02781,-1.2791 -0.34677,-0.29179 -0.83462,-0.96887 -1.08409,-1.50462 -0.4158,-0.89292 -0.45376,-1.23021 -0.45549,-4.04739 l -0.002,-3.07329 -0.74791,-0.64019 c -1.09692,-0.93892 -1.44406,-1.80481 -1.56435,-3.90196 l -0.10319,-1.79972 -1.3471,-0.56746 c -0.7409,-0.31211 -1.43929,-0.56747 -1.55196,-0.56747 -0.11268,0 -0.71864,0.51919 -1.34658,1.15376 -1.66229,1.67981 -3.08721,2.08701 -5.01029,1.43175 -0.77137,-0.26283 -1.46705,-0.86965 -4.334,-3.78037 -1.87833,-1.907 -3.58226,-3.78787 -3.78652,-4.17973 -0.24619,-0.47228 -0.3724,-1.10929 -0.3744,-1.8897 -0.004,-1.41053 0.4968,-2.38377 1.96151,-3.81484 l 0.95592,-0.93407 -0.6223,-1.48142 -0.62231,-1.48144 -1.91286,-0.10309 c -2.18306,-0.11764 -2.79501,-0.36483 -3.79484,-1.53291 -1.0243,-1.19667 -1.11345,-1.757 -1.11135,-6.98557 0.002,-4.54634 0.0179,-4.74591 0.45752,-5.67816 0.86627,-1.83696 2.23217,-2.59783 4.67551,-2.60447 l 1.55999,-0.004 0.60854,-1.59411 0.60853,-1.59409 -1.03698,-1.06295 c -0.57034,-0.5846 -1.19166,-1.36727 -1.38072,-1.73926 -0.4885,-0.96118 -0.45803,-2.77517 0.0633,-3.768168 0.50083,-0.95396 6.84622,-7.27323 7.77593,-7.74393 0.90125,-0.4563 2.77277,-0.45553 3.67155,0.002 0.37199,0.18914 1.12546,0.78088 1.67439,1.31497 l 0.99806,0.97107 1.61067,-0.69396 1.61068,-0.69397 0.10664,-1.60206 c 0.15898,-2.387032 0.88341,-3.566352 2.69544,-4.387842 0.80093,-0.36311 1.2509,-0.39423 5.70056,-0.39423 4.44965,0 4.89962,0.0311 5.70056,0.39423 1.83469,0.83177 2.5303,1.91689 2.68786,4.192982 l 0.11412,1.64836 1.35267,0.56444 c 2.08585,0.87037 1.9621,0.87433 2.96174,-0.0945 0.49668,-0.48137 1.2074,-1.03006 1.57938,-1.21932 0.89869,-0.45722 2.77008,-0.45808 3.67155,-0.002 0.92208,0.46684 7.26976,6.78293 7.78266,7.74394 0.53282,0.998308 0.56299,2.804248 0.063,3.768168 -0.19297,0.37198 -0.74883,1.08689 -1.23524,1.58869 l -0.88439,0.91236 0.69334,1.69638 0.69334,1.69637 1.5162,0.10776 c 1.00646,0.0715 1.78602,0.24831 2.31877,0.52581 0.92754,0.48312 1.9329,1.61895 2.09789,2.37014 l 0.11397,0.51896 2.26096,0.0963 c 2.50709,0.10675 3.24263,0.33019 4.38295,1.33139 1.15318,1.01252 1.64079,2.26178 1.65048,4.22854 l 0.008,1.64254 2.12919,0.84138 2.12919,0.84138 1.10699,-1.05589 c 1.40799,-1.34299 2.14405,-1.71752 3.60614,-1.83488 2.04815,-0.1644 2.56082,0.17777 7.10892,4.74472 2.52961,2.54007 4.09316,4.26225 4.28371,4.71831 0.42173,1.00935 0.38027,2.95075 -0.0849,3.97574 -0.2071,0.4563 -0.8549,1.33116 -1.43959,1.94413 l -1.06304,1.11449 0.68366,1.6308 c 0.37601,0.89694 0.75729,1.81397 0.84732,2.03783 0.14437,0.35904 0.365,0.41874 1.8713,0.50635 0.9392,0.0546 2.0183,0.23015 2.39802,0.39007 0.95938,0.40403 2.05532,1.41087 2.55775,2.34981 0.40959,0.76544 0.4234,0.98669 0.4234,6.78168 0,5.7772 -0.0149,6.0183 -0.41928,6.77361 -1.02947,1.92292 -2.31362,2.64364 -4.96414,2.78602 l -1.90511,0.10234 -0.43946,1.17112 c -0.2417,0.64412 -0.63131,1.54717 -0.86578,2.00679 l -0.42632,0.83568 1.26501,1.27828 c 1.49358,1.50922 1.86276,2.29037 1.85703,3.92911 -0.007,1.99225 -0.3649,2.52351 -4.50039,6.67966 -4.21617,4.23725 -4.86281,4.67936 -6.84401,4.67936 -1.65616,0 -2.35701,-0.3385 -4.00072,-1.93233 l -1.39951,-1.35704 -1.23922,0.55619 c -0.68156,0.3059 -1.5653,0.66144 -1.96385,0.79009 l -0.72465,0.23391 v 1.78636 c 0,2.17579 -0.34878,3.30979 -1.32843,4.31926 -1.4257,1.46908 -1.54263,1.49178 -7.94707,1.54264 -4.42975,0.0352 -5.86218,-0.0136 -6.42559,-0.21891 z m 12.2389,-3.35603 c 0.56022,-0.6273 0.5636,-0.64583 0.5636,-3.09714 0,-1.86165 0.0699,-2.56589 0.28526,-2.87334 0.17397,-0.24838 0.90902,-0.61199 1.88409,-0.93202 0.87934,-0.28862 2.33085,-0.86505 3.22556,-1.28097 1.05752,-0.4916 1.7675,-0.71362 2.02901,-0.63449 0.22125,0.0669 1.19492,0.89426 2.16371,1.83848 1.67034,1.62797 1.80498,1.71675 2.60336,1.71675 0.83654,0 0.8664,-0.0245 4.66378,-3.82184 3.78532,-3.78532 3.82185,-3.82981 3.82185,-4.65519 0,-0.78715 -0.0964,-0.93312 -1.73916,-2.63423 -1.07282,-1.11092 -1.73915,-1.95731 -1.73915,-2.20911 0,-0.22451 0.35336,-1.11101 0.78525,-1.97 0.43189,-0.85899 1.04326,-2.27012 1.35859,-3.13585 0.80115,-2.1995 0.88419,-2.25039 3.6717,-2.25039 2.26168,0 2.30342,-0.008 2.92549,-0.56359 l 0.63108,-0.56359 0.0571,-5.22611 c 0.0493,-4.50475 0.0141,-5.30927 -0.25438,-5.82854 -0.45816,-0.88598 -1.29439,-1.1517 -3.6244,-1.1517 -1.29944,0 -2.11001,-0.0845 -2.31774,-0.24155 -0.17569,-0.13285 -0.59067,-1.01544 -0.92217,-1.9613 -0.3315,-0.94586 -0.95284,-2.44628 -1.38075,-3.33427 -0.57387,-1.19085 -0.74466,-1.74746 -0.65088,-2.12112 0.0699,-0.27863 0.8184,-1.22839 1.66327,-2.11059 1.42847,-1.49159 1.53611,-1.66174 1.53611,-2.42813 0,-0.81199 -0.0548,-0.87917 -3.71223,-4.55417 -4.7632,-4.78603 -4.80565,-4.79782 -7.50484,-2.08049 -1.68807,1.69941 -1.90832,1.74437 -3.82289,0.78021 -0.72067,-0.36294 -2.12658,-0.94491 -3.12423,-1.29329 -2.51306,-0.87755 -2.51243,-0.87671 -2.51243,-3.44498 0,-3.40234 -0.32797,-3.78075 -3.27654,-3.78075 h -1.84431 l -0.0978,3.67154 c -0.10722,4.02585 -0.1741,4.28931 -1.38333,5.44923 -0.93387,0.89578 -1.86095,1.21754 -3.50816,1.21754 h -1.42677 l -0.71161,1.68108 -0.71162,1.68107 0.65448,0.65449 0.65447,0.65447 1.99544,-0.33366 c 5.49577,-0.91896 11.6077,0.82614 15.51355,4.42948 0.6369,0.58758 0.72873,0.77715 0.67633,1.3963 -0.074,0.87493 -0.83506,1.54542 -1.55031,1.3659 -0.25329,-0.0636 -1.02174,-0.5677 -1.70767,-1.12029 -1.40779,-1.13412 -4.10676,-2.48317 -5.98152,-2.98978 -1.33782,-0.36152 -5.47634,-0.4963 -6.76757,-0.2204 -0.65336,0.1396 -0.68945,0.1924 -0.90424,1.32259 -0.12304,0.64746 -0.44971,1.5033 -0.72591,1.90186 -0.74204,1.07078 -6.46927,6.66139 -7.25466,7.08163 -0.48459,0.25927 -1.07175,0.36078 -2.07104,0.35803 l -1.39469,-0.004 -0.30875,1.35746 c -1.89942,8.35113 2.76683,16.41487 11.02094,19.04526 2.07773,0.66212 5.8099,0.75724 8.11607,0.20684 9.67177,-2.30827 14.88925,-12.68997 11.00551,-21.89867 -0.7621,-1.80705 -0.80966,-2.24459 -0.31084,-2.8606 0.40719,-0.50286 1.36957,-0.59435 1.87136,-0.17791 0.5013,0.41604 1.39613,2.34143 1.94706,4.18942 0.62503,2.09653 0.8434,5.98601 0.46739,8.32498 -0.32756,2.0376 -1.35627,4.82853 -2.46404,6.68505 -1.87102,3.13561 -5.69251,6.3917 -8.99739,7.6662 -2.89826,1.11769 -3.63746,1.24578 -7.19061,1.24597 -2.84911,1.5e-4 -3.48753,-0.0585 -4.8107,-0.4417 -4.50629,-1.30522 -8.32081,-4.07044 -10.84206,-7.85964 -3.14089,-4.72047 -3.99551,-10.63208 -2.30579,-15.94978 l 0.46059,-1.44954 -0.42989,-0.41704 -0.42988,-0.41704 -1.54591,0.62639 -1.54592,0.6264 -0.10398,1.81965 c -0.11408,1.99623 -0.34975,2.61184 -1.37714,3.59734 -1.17072,1.12298 -1.64803,1.21754 -6.14563,1.21754 h -4.06424 l 0.004,2.65704 c 0.006,3.75113 0.16889,3.9131 3.93364,3.9131 2.93453,0 3.09036,0.0969 3.88622,2.41549 0.29185,0.85026 0.82475,2.13071 1.18423,2.84546 0.35947,0.71475 0.65082,1.49737 0.64743,1.73916 -0.004,0.2873 -0.63802,1.09767 -1.82989,2.33896 -1.99336,2.07602 -2.30058,2.723 -1.77093,3.72943 0.16061,0.30518 1.89106,2.14186 3.84545,4.0815 l 3.55343,3.52662 h 0.91648 c 0.89607,0 0.95861,-0.0409 2.80833,-1.83577 1.37135,-1.3307 2.02556,-1.83578 2.37782,-1.83578 0.26728,0 1.17129,0.31664 2.00891,0.70364 0.83761,0.387 2.12544,0.90857 2.86182,1.15903 2.0409,0.69416 2.04637,0.70307 2.04764,3.33644 10e-4,2.77208 0.20478,3.58379 1.02529,4.09062 0.57961,0.35804 0.92953,0.3775 5.89806,0.32812 l 5.2819,-0.0525 0.56359,-0.63108 z m -7.35922,-22.48258 c -3.14878,-0.33726 -6.12145,-2.40129 -7.68597,-5.33662 -3.60532,-6.76427 1.37462,-14.93198 9.10418,-14.93198 3.34595,0 6.58541,1.80458 8.4738,4.72043 2.5606,3.95379 1.96916,9.28158 -1.40493,12.65566 -2.22951,2.22951 -5.20601,3.24394 -8.48708,2.89251 z m 4.50509,-3.54371 c 1.31504,-0.66535 2.90153,-2.27603 3.43929,-3.49173 1.62748,-3.67919 -0.002,-8.00942 -3.65926,-9.72385 -0.94629,-0.4436 -1.3484,-0.51409 -2.93245,-0.51409 -1.61415,0 -1.98092,0.067 -3.03818,0.5554 -2.35529,1.08793 -4.02763,3.48814 -4.24612,6.09418 -0.20595,2.45663 0.99445,5.05796 2.95717,6.40835 1.60607,1.10501 2.46428,1.34883 4.52909,1.28676 1.58661,-0.0477 1.99913,-0.13369 2.95046,-0.61502 z m -28.16812,-9.8561 c 0.44604,-0.44605 0.47431,-0.60088 0.47431,-2.59796 0,-1.93239 0.0391,-2.16653 0.43479,-2.59979 0.23913,-0.26188 0.91306,-0.62667 1.49761,-0.81065 0.58454,-0.18398 1.81488,-0.67088 2.73408,-1.082 1.04153,-0.46582 1.80607,-0.69943 2.02901,-0.61995 0.19676,0.0701 1.06452,0.80994 1.92836,1.64398 1.20097,1.15956 1.69821,1.51645 2.11277,1.51645 0.44268,0 1.13574,-0.58989 3.77753,-3.21518 1.77947,-1.76836 3.28738,-3.42234 3.35093,-3.67552 0.16056,-0.63973 -0.12972,-1.11278 -1.65826,-2.70236 -0.7974,-0.82926 -1.32739,-1.5455 -1.32739,-1.79391 0,-0.22742 0.23371,-0.86713 0.51935,-1.42156 0.28564,-0.55445 0.83458,-1.83419 1.21988,-2.84386 0.51398,-1.34696 0.82591,-1.89934 1.17148,-2.07448 0.27706,-0.14042 1.25034,-0.23988 2.36384,-0.24155 1.75012,-0.003 1.92864,-0.0386 2.36718,-0.47717 l 0.47432,-0.47431 v -4.5587 -4.55869 l -0.47432,-0.47432 c -0.44261,-0.44261 -0.60826,-0.47431 -2.47843,-0.47431 -2.40789,0 -2.50579,-0.0712 -3.31934,-2.41549 -0.29507,-0.85026 -0.78719,-2.04344 -1.09361,-2.65153 -0.8323,-1.65176 -0.77404,-1.9003 0.83422,-3.55891 2.09167,-2.15715 2.12054,-2.05658 -1.69085,-5.889988 -1.69519,-1.70499 -3.28198,-3.17937 -3.5262,-3.2764 -0.67192,-0.26695 -1.52119,0.19407 -2.83499,1.53896 -0.83653,0.85633 -1.29361,1.18068 -1.66382,1.18068 -0.28074,0 -1.24,-0.33526 -2.13168,-0.74503 -0.89169,-0.40976 -2.09952,-0.89601 -2.68406,-1.08055 -0.58455,-0.18453 -1.25848,-0.54977 -1.49761,-0.81165 -0.3901,-0.42721 -0.43479,-0.67456 -0.43479,-2.40655 0,-1.79192 -0.034,-1.96444 -0.47431,-2.40473 l -0.47432,-0.47431 h -4.36626 c -4.55106,0 -5.28717,0.11586 -5.57972,0.87823 -0.066,0.17205 -0.12004,1.17924 -0.12004,2.23819 0,1.75424 -0.0397,1.96509 -0.44669,2.37207 -0.24568,0.24568 -0.9196,0.60113 -1.49761,0.78987 -0.578,0.18875 -1.73075,0.67945 -2.56168,1.09044 -0.83092,0.411 -1.7315,0.74726 -2.0013,0.74726 -0.34364,0 -0.9039,-0.39749 -1.87092,-1.32738 -1.58583,-1.52495 -2.06292,-1.81875 -2.69547,-1.65999 -0.2494,0.0626 -1.87729,1.53961 -3.61755,3.28227 -3.94973,3.955178 -3.90237,3.770758 -1.57953,6.150538 0.87151,0.89287 1.58456,1.77471 1.58456,1.95966 0,0.18494 -0.33572,1.08688 -0.74604,2.00431 -0.41032,0.91743 -0.89712,2.14633 -1.08177,2.73087 -0.51217,1.62134 -0.73061,1.73807 -3.26613,1.7453 -3.27679,0.009 -3.21535,-0.0994 -3.21535,5.6905 v 4.36938 l 0.47431,0.47431 c 0.44855,0.44855 0.59492,0.47432 2.69458,0.47432 2.65499,0 2.9059,0.1484 3.59386,2.12564 0.24037,0.69083 0.69276,1.76564 1.00532,2.38847 0.89524,1.78395 0.83623,2.03963 -0.86809,3.76093 -1.57895,1.59467 -1.96999,2.28232 -1.69528,2.98116 0.094,0.23914 1.59783,1.84786 3.34184,3.57493 2.56048,2.53563 3.27374,3.14014 3.70497,3.14014 0.40743,0 0.93883,-0.38941 2.24144,-1.64254 1.1979,-1.15238 1.8491,-1.64252 2.18225,-1.64252 0.26117,0 1.11615,0.29198 1.89996,0.64887 0.78381,0.35688 1.97293,0.84838 2.6425,1.09222 1.67932,0.61158 1.77782,0.8017 1.77782,3.43153 0,2.06545 0.0266,2.21462 0.47432,2.66236 l 0.47431,0.47431 h 4.5587 4.55869 z m -8.4147,-11.86795 c -6.13058,-1.34068 -10.93438,-5.96109 -12.5829,-12.10253 -0.57673,-2.14855 -0.58556,-5.93844 -0.0187,-8.03749 1.61,-5.96202 6.02262,-10.39339 11.93571,-11.98643 2.16741,-0.58392 5.92674,-0.58422 8.09269,-8.7e-4 2.37173,0.63902 4.17235,1.53714 4.46176,2.22547 0.32901,0.78247 0.0372,1.55949 -0.70047,1.86503 -0.48214,0.19971 -0.70525,0.18348 -1.38844,-0.10103 -3.48793,-1.45251 -5.39665,-1.80567 -7.93401,-1.46801 -6.41408,0.85355 -11.03419,5.45195 -11.93299,11.87691 -0.87496,6.25447 3.16463,12.49212 9.43392,14.56719 1.3053,0.43204 1.83349,0.49743 4.01514,0.49706 2.19443,-5.3e-4 2.70812,-0.065 4.0621,-0.51073 5.10484,-1.68063 8.68665,-5.99006 9.39393,-11.30229 0.39677,-2.98012 -0.2491,-6.02572 -1.82642,-8.61242 -1.35877,-2.22828 -1.35307,-2.21362 -1.09895,-2.82711 0.29356,-0.70871 1.19198,-1.10399 1.83908,-0.80916 1.00921,0.45983 2.65992,3.36534 3.50083,6.16201 0.43664,1.45217 0.51316,2.07625 0.52808,4.30698 0.0183,2.73322 -0.19389,3.95274 -1.07584,6.18366 -1.02783,2.59996 -3.28624,5.5384 -5.53148,7.19706 -1.51766,1.12116 -3.76518,2.20539 -5.54007,2.67258 -2.21685,0.58353 -5.49639,0.67113 -7.63295,0.20389 z m 0.73386,-7.53732 c -1.59247,-0.52466 -2.61859,-1.1847 -3.83661,-2.46787 -4.74658,-5.00041 -2.36657,-13.09129 4.36683,-14.84512 2.90138,-0.75571 5.91363,0.0255 8.16481,2.11758 2.12834,1.9779 3.07022,4.31209 2.88588,7.15188 -0.17705,2.72742 -1.37229,4.96984 -3.51976,6.60355 -1.57015,1.1945 -2.93457,1.6569 -5.12346,1.73638 -1.414,0.0513 -2.08895,-0.0168 -2.93769,-0.2964 z m 5.35318,-3.16421 c 3.59744,-1.85435 4.48298,-6.46381 1.82246,-9.48633 -0.43456,-0.49369 -1.25716,-1.11617 -1.87764,-1.42087 -1.48088,-0.7272 -3.72526,-0.77428 -5.08027,-0.10655 -1.36452,0.67242 -2.42113,1.68893 -3.01714,2.90265 -0.45923,0.93518 -0.54274,1.3451 -0.5403,2.65206 0.003,1.80499 0.40192,2.86613 1.55639,4.14399 1.27505,1.41133 2.65317,1.95802 4.72101,1.87282 1.09649,-0.0452 1.6845,-0.18097 2.41549,-0.55777 z"
           id="path3114"
           inkscape:connector-curvature="0" />
      </g>
    </clipPath>
  </defs>
  <sodipodi:namedview
     id="base"
     pagecolor="#ffffff"
     bordercolor="#666666"
     borderopacity="1.0"
     inkscape:pageopacity="0.0"
     inkscape:pageshadow="2"
     inkscape:zoom="0.24748737"
     inkscape:cx="1114.7278"
     inkscape:cy="510.60335"
     inkscape:document-units="mm"
     inkscape:current-layer="layer1"
     showgrid="false"
     inkscape:window-width="1920"
     inkscape:window-height="1009"
     inkscape:window-x="-8"
     inkscape:window-y="-8"
     inkscape:window-maximized="1" />
  <metadata
     id="metadata1649">
    <rdf:RDF>
      <cc:Work
         rdf:about="">
        <dc:format>image/svg+xml</dc:format>
        <dc:type
           rdf:resource="http://purl.org/dc/dcmitype/StillImage" />
        <dc:title></dc:title>
      </cc:Work>
    </rdf:RDF>
  </metadata>
  <g
     inkscape:label="Camada 1"
     inkscape:groupmode="layer"
     id="layer1"
     transform="translate(-44.186841,-94.081509)">
    <path
       style="fill:#ffffff;stroke-width:0.18408866"
       d="m 130.63867,208.61778 c -1.51918,-0.38325 -2.30949,-1.01806 -6.7199,-5.39782 -4.68359,-4.65103 -5.30282,-5.44956 -5.16191,-6.65654 0.0687,-0.58835 -0.0456,-0.75212 -1.61608,-2.31608 l -1.68999,-1.68297 -1.75874,1.04954 c -4.65328,2.77686 -9.14379,4.01759 -14.575706,4.02727 -3.479681,0.006 -5.614091,-0.32281 -8.74695,-1.34835 -1.99585,-0.65334 -5.11755,-2.0983 -6.34832,-2.9385 -0.547201,-0.37355 -0.716262,-0.37702 -18.418761,-0.37822 l -17.866481,-0.001 -0.96327,-0.48002 c -1.21323,-0.60452 -2.1462,-1.78928 -2.42279,-3.07662 -0.14673,-0.68287 -0.18883,-8.76421 -0.14837,-28.47473 0.0548,-26.65827 0.0676,-27.54435 0.40854,-28.25761 0.51246,-1.07193 16.237381,-16.82796 17.485,-17.51959 l 0.940011,-0.5211 h 21.81451 21.814517 l 0.73876,0.39569 c 1.03038,0.55189 1.72637,1.28978 2.23129,2.36564 l 0.43199,0.92045 0.002,12.55648 0.002,12.55649 2.00151,1.0238 c 4.2287,2.16303 8.46499,6.02759 10.94976,9.98894 0.9367,1.49333 2.29051,4.38452 2.85859,6.10481 2.65574,8.04219 1.6407,16.478 -2.87876,23.92489 l -0.82307,1.35621 1.6827,1.68973 c 1.5637,1.57023 1.72748,1.6845 2.31583,1.61581 1.20595,-0.14079 2.00614,0.47931 6.67236,5.17065 5.23991,5.26814 5.47246,5.61824 5.46813,8.23275 -0.002,1.20287 -0.0939,1.76559 -0.39719,2.43314 -0.53976,1.18782 -1.92685,2.62059 -3.08616,3.18778 -1.08353,0.53012 -3.04258,0.73998 -4.19465,0.44935 z m 2.97649,-3.50818 c 1.29589,-0.79002 1.81115,-2.02285 1.45466,-3.48047 -0.18109,-0.74045 -0.66347,-1.29475 -4.45006,-5.11353 l -4.24696,-4.28307 -2.26136,2.25594 -2.26138,2.25594 4.00455,4.01846 c 2.20249,2.21016 4.29447,4.17492 4.64885,4.36612 0.88757,0.47892 2.30886,0.47006 3.1117,-0.0194 z m -29.52843,-10.92182 c 4.83834,-1.0918 8.75799,-3.16341 12.20179,-6.44887 3.89842,-3.71918 6.48767,-8.4216 7.52297,-13.66269 0.48486,-2.45456 0.44151,-7.11112 -0.0892,-9.58604 -0.70304,-3.2784 -2.01174,-6.35308 -3.92349,-9.21797 -1.23586,-1.85204 -4.82133,-5.40983 -6.69168,-6.64003 -6.5753,-4.32482 -14.547875,-5.39835 -21.904726,-2.94953 -8.68893,2.89223 -14.790881,9.85238 -16.788509,19.14974 -0.46564,2.16715 -0.463621,7.18425 0.003,9.36105 1.100278,5.12443 3.100869,8.96101 6.565958,12.59175 3.973651,4.16358 8.4904,6.58108 14.174841,7.58677 1.830451,0.32385 7.164606,0.21381 8.928306,-0.18418 z m -7.594227,-2.87596 c -8.359561,-1.05201 -15.520829,-6.87928 -18.1766,-14.79069 -0.85512,-2.54734 -1.067451,-3.90336 -1.084461,-6.9255 -0.0172,-3.04783 0.22693,-4.6629 1.086731,-7.19082 0.553709,-1.62797 1.661459,-3.84527 2.673771,-5.35189 1.01577,-1.51174 4.166888,-4.66123 5.682858,-5.67992 2.435241,-1.63639 5.60487,-2.95044 8.49177,-3.52046 1.826102,-0.36056 6.393588,-0.30782 8.275848,0.0956 7.49576,1.60642 13.61171,6.85162 16.26664,13.95069 1.71601,4.58844 1.75121,10.09301 0.0949,14.83485 -2.53777,7.26529 -8.68088,12.63963 -16.26948,14.23347 -1.99011,0.41799 -5.207958,0.5755 -7.041968,0.3447 z m 5.339427,-3.21191 c 11.08968,-1.67159 18.24409,-12.395 15.50281,-23.23643 -2.2004,-8.70227 -10.39852,-14.71332 -19.321018,-14.16662 -3.085759,0.18907 -5.755338,1.01621 -8.654068,2.68138 -2.057792,1.18208 -5.186622,4.32172 -6.43844,6.46069 -1.087012,1.85734 -2.208631,5.04858 -2.479532,7.05471 -1.10775,8.20358 3.215301,16.12392 10.720321,19.64089 3.4539,1.61855 6.931991,2.12882 10.669927,1.56538 z M 88.439203,160.91498 c -1.020779,-0.55832 -1.12253,-1.64868 -0.246941,-2.64593 1.976561,-2.25117 6.160751,-4.12235 9.91894,-4.43577 1.4312,-0.11936 1.44711,-0.11585 2.006268,0.44331 0.5998,0.59981 0.68887,1.0361 0.3592,1.75964 -0.27718,0.60834 -0.761508,0.80874 -2.280767,0.9437 -2.639139,0.23446 -4.99129,1.158 -6.887699,2.70437 -1.83424,1.49568 -2.142641,1.62797 -2.869001,1.23068 z m 33.506257,31.32141 1.09513,-1.10669 -1.42287,-1.42287 -1.42287,-1.42287 -1.14751,1.1475 -1.1475,1.1475 1.37283,1.38206 c 0.75506,0.76013 1.41891,1.38205 1.47524,1.38205 0.0564,0 0.59523,-0.49801 1.19755,-1.10668 z m -43.802158,-3.88541 c -3.28866,-3.49587 -5.622909,-8.13104 -6.756638,-13.41678 -0.599662,-2.79576 -0.599662,-8.06547 0,-10.86123 1.644809,-7.66854 5.785149,-13.85916 12.08214,-18.06514 6.3129,-4.2166 13.969468,-5.67017 21.593826,-4.0995 0.73923,0.15228 1.46408,0.32294 1.61077,0.37923 0.23116,0.0887 0.26671,-1.45721 0.26671,-11.59832 0,-8.18311 -0.0614,-11.83553 -0.20439,-12.14925 -0.11241,-0.24673 -0.40626,-0.54056 -0.65297,-0.65297 -0.32019,-0.14589 -6.321228,-0.20439 -20.965817,-0.20439 h -20.51723 v 6.50173 c 0,7.62724 -0.046,7.92072 -1.463941,9.33866 -1.417929,1.41793 -1.711419,1.46394 -9.338659,1.46394 h -6.501731 v 26.97736 26.97735 l 0.45185,0.45186 0.45186,0.45186 h 15.675021 15.675031 z m -24.957099,-3.23782 c -1.12062,-0.40965 -1.46121,-1.73911 -0.65268,-2.54765 l 0.45186,-0.45185 h 6.9117 c 6.63656,0 6.92615,0.0145 7.27518,0.36349 0.50549,0.50549 0.63436,1.17376 0.34339,1.78059 -0.4591,0.95748 -0.64363,0.98096 -7.61021,0.96818 -3.54371,-0.006 -6.56736,-0.0573 -6.71924,-0.11276 z m -0.65268,-8.23766 c -0.55648,-0.5565 -0.60177,-1.53127 -0.0999,-2.15101 l 0.35192,-0.4346 h 6.291539 6.291551 l 0.35191,0.4346 c 0.50184,0.61974 0.45655,1.59451 -0.0999,2.15101 l -0.45186,0.45185 h -6.091661 -6.091659 z m -0.0703,-7.949 c -0.53445,-0.67946 -0.49568,-1.5526 0.0935,-2.10613 l 0.47505,-0.44629 h 6.04527 6.04527 l 0.47505,0.44629 c 0.5892,0.55353 0.62797,1.42667 0.0935,2.10613 l -0.38155,0.48504 h -6.23229 -6.23229 z m 0.44687,-7.46903 c -0.94393,-0.54134 -1.12298,-1.70887 -0.37655,-2.4553 l 0.45186,-0.45186 h 6.876979 c 6.653811,0 6.889981,0.0121 7.277641,0.37327 0.83886,0.78152 0.67487,2.00884 -0.3368,2.52076 -0.62038,0.31391 -13.34769,0.32594 -13.89313,0.0131 z m -0.37655,-8.14532 c -0.44467,-0.44467 -0.58324,-1.2006 -0.3375,-1.841 0.30679,-0.79948 0.72315,-0.83665 9.37124,-0.83665 h 8.21524 l 0.5381,0.53811 c 0.786371,0.78636 0.63014,1.95444 -0.31925,2.38701 -0.30752,0.14011 -3.05341,0.20439 -8.73228,0.20439 h -8.28369 z m -0.0516,-7.89002 c -0.54851,-0.58386 -0.53624,-1.59108 0.0258,-2.11909 l 0.426059,-0.40027 h 11.64011 11.640112 l 0.451858,0.45186 c 0.597799,0.5978 0.597799,1.44391 0,2.04171 l -0.451858,0.45185 h -11.665911 -11.6659 z m 17.67887,-7.49829 c -0.50364,-0.20215 -0.93575,-1.13404 -0.81609,-1.75999 0.0472,-0.24685 0.29405,-0.61263 0.54859,-0.81285 0.45269,-0.35608 0.800129,-0.36404 15.90979,-0.36404 h 15.446987 l 0.45185,0.45186 c 0.44468,0.44466 0.58325,1.2006 0.33751,1.84101 -0.3231,0.84197 -0.23175,0.83735 -16.306427,0.82497 -8.758341,-0.007 -15.32838,-0.0831 -15.57221,-0.18096 z m -0.2942,-8.13738 c -0.50941,-0.45831 -0.62179,-0.89736 -0.42324,-1.65345 0.20412,-0.77727 0.007,-0.9861 5.79551,-1.04186 2.365471,-0.0228 5.730521,-0.02 10.53102,-0.02 16.030137,0 15.946857,-0.004 16.269547,0.83664 0.27389,0.71376 0.11585,1.52861 -0.3707,1.91133 -0.48195,0.3791 -0.5837,0.38154 -15.913407,0.38154 h -15.42836 z m -8.90751,1.5599 c 0.41439,-0.4144 0.41965,-0.47928 0.47292,-5.84481 0.0296,-2.98417 -0.0113,-5.42577 -0.091,-5.42577 -0.190761,0 -11.65254,11.45964 -11.65254,11.65037 0,0.0808 2.4416,0.12277 5.42577,0.0931 5.365539,-0.0533 5.43042,-0.0585 5.844819,-0.47292 z"
       id="path1472"
       inkscape:connector-curvature="0"
       sodipodi:nodetypes="cccccccscccscccccccccccccccccscccccccccsccccccccssccsccccccccccccccccccccccscscsccccccccccccccccscssccccscsscssscccccccscccsccccccccccccccccccccsccccccscsccccscscccscscccccsccccccccscccccccssccsccccsscsc" />
    <path
       style="fill:#ffffff;stroke:#ffffff;stroke-width:0;stroke-miterlimit:2.5;stroke-dasharray:none"
       d="m 117.53012,141.40132 c -0.25175,-0.1557 -1.12717,-0.97564 -1.94536,-1.8221 l -1.48762,-1.539 v -0.78641 c 0,-0.69636 0.0615,-0.84797 0.5378,-1.3242 0.50386,-0.50387 0.58654,-0.53314 1.30958,-0.46366 0.70092,0.0674 0.85844,0.16007 1.71605,1.01005 l 0.94429,0.93589 1.63685,-1.64194 c 0.90027,-0.90307 1.63685,-1.70399 1.63685,-1.77981 0,-0.0759 -0.44781,-0.60173 -0.99514,-1.16866 -1.43508,-1.48649 -1.80978,-2.38119 -1.81499,-4.33384 -0.005,-1.8934 0.34903,-2.90018 1.43968,-4.09353 1.28085,-1.40145 2.98452,-2.08584 5.19239,-2.08584 h 1.06053 v -2.34847 -2.34848 l -1.71649,-0.0572 c -1.53546,-0.0512 -1.82109,-0.10679 -2.70825,-0.52722 -2.78825,-1.32136 -4.16659,-4.52542 -3.1917,-7.41934 0.3822,-1.13455 0.68543,-1.59766 1.79988,-2.7488 l 0.85042,-0.87841 -1.66432,-1.6695 -1.66433,-1.6695 -1.02145,0.96359 c -0.5618,0.52998 -1.4247,1.16159 -1.91755,1.40359 -0.8227,0.40396 -1.03351,0.43999 -2.57443,0.43999 -1.60231,0 -1.7249,-0.0233 -2.70585,-0.51564 -2.29074,-1.1496 -3.47352,-3.26955 -3.47352,-6.225766 v -0.963727 h -2.36494 -2.36495 v 1.357118 c 0,4.002585 -2.620859,6.597955 -6.458362,6.395555 -1.675718,-0.0884 -2.697858,-0.56503 -4.086389,-1.90553 l -1.061805,-1.02509 -1.672082,1.6669 -1.672082,1.6669 0.849826,0.85879 c 0.668722,0.67577 0.867196,0.98826 0.931313,1.4663 0.09273,0.69131 -0.209266,1.4149 -0.747992,1.79224 -0.424874,0.29759 -1.376615,0.30757 -1.919857,0.0201 -0.617963,-0.32698 -3.194528,-2.99699 -3.385712,-3.5085 -0.3461,-0.92601 -0.145517,-1.20758 3.404162,-4.77893 4.375676,-4.402378 4.174538,-4.352258 6.89819,-1.71896 1.345556,1.30092 1.838031,1.68283 2.275943,1.76498 1.140357,0.21393 2.058496,-0.14028 2.744718,-1.05889 0.279651,-0.37437 0.323046,-0.70363 0.390867,-2.965829 0.0474,-1.581492 0.146485,-2.667122 0.261729,-2.868112 0.433066,-0.755239 0.893751,-0.820919 5.757553,-0.820919 5.00118,0 5.16622,0.02764 5.73532,0.961013 0.26173,0.429235 0.29791,0.777125 0.29841,2.868993 4.5e-4,2.217854 0.0242,2.415944 0.34588,2.898964 0.68776,1.03257 2.32812,1.40882 3.35246,0.76895 0.27395,-0.17113 1.14883,-0.96676 1.94417,-1.768061 1.50726,-1.518553 1.96153,-1.762864 2.86322,-1.539839 0.53214,0.131626 6.85227,6.36713 7.14877,7.05304 0.38564,0.89218 0.15161,1.35016 -1.62266,3.17546 -0.89729,0.9231 -1.70934,1.82832 -1.80456,2.01162 -0.47859,0.92125 0.0918,2.62751 1.04511,3.12657 0.4449,0.2329 0.90037,0.27829 2.7921,0.27829 2.52789,0 2.95888,0.1193 3.4721,0.96102 0.2778,0.4556 0.29788,0.79488 0.29841,5.04272 5.5e-4,6.24427 0.11743,6.04984 -3.6297,6.04984 -2.06969,0 -2.33074,0.0309 -2.92861,0.3471 -0.38711,0.20471 -0.77251,0.56365 -0.93946,0.87494 -0.31714,0.59135 -0.37692,1.81734 -0.11386,2.33541 0.0931,0.18329 0.8921,1.06479 1.77563,1.95888 1.55811,1.57673 1.6087,1.64939 1.68243,2.41681 l 0.076,0.7912 -3.49555,3.49555 -3.49555,3.49554 -0.68291,-5.5e-4 c -0.39807,-3e-4 -0.87381,-0.11864 -1.14063,-0.28366 z m -6.4365,-13.36587 c -0.2673,-0.11625 -0.59344,-0.41912 -0.72474,-0.67304 -0.40098,-0.77541 -0.30191,-1.39983 0.39258,-2.47432 1.10926,-1.71626 1.40876,-2.70586 1.40417,-4.63961 -0.003,-1.33282 -0.0719,-1.86427 -0.33381,-2.58149 -0.84334,-2.30927 -2.68442,-4.15354 -4.98209,-4.99068 -0.73066,-0.26621 -1.25427,-0.33418 -2.59381,-0.33667 -1.94616,-0.004 -2.96336,0.30262 -4.639099,1.39662 -0.661317,0.43174 -1.144715,0.63801 -1.495213,0.63801 -1.432823,0 -2.286784,-1.35682 -1.640522,-2.60655 0.516473,-0.99876 3.052863,-2.4863 5.212174,-3.05683 1.59528,-0.42151 4.29523,-0.45777 5.68167,-0.0763 5.68954,1.56547 9.33611,6.84762 8.69051,12.58847 -0.24332,2.16364 -0.96769,3.98468 -2.29706,5.7747 -0.89276,1.20214 -1.63476,1.49001 -2.67476,1.03768 z"
       id="path3088"
       inkscape:connector-curvature="0"
       sodipodi:nodetypes="cccssssccscccsccccccscccscscscccsscccccccccccccccsccccscccccsccsccccccccccccsccscccscssssc" />
  </g>
</svg>
