 <svg
            width="24"
            height="24"
            viewBox="0 0 24 24"
            fill="none"
            xmlns="http://www.w3.org/2000/svg">
            <g id="CkMoon">
                <path
                    id="Vector"
                    d="M21.4 13.7C20.6 13.9 19.8 14 19 14C14 14 10 9.99995 10 4.99995C10 4.19995 10.1 3.39995 10.3 2.59995C10.4 2.29995 10.3 1.89995 10 1.59995C9.7 1.29995 9.4 1.19995 9 1.29995C4.3 2.69995 1 7.09995 1 12C1 18.1 5.9 23 12 23C16.9 23 21.3 19.7 22.6 14.9C22.7 14.6 22.6 14.2 22.3 13.9C22.1 13.7 21.7 13.6 21.4 13.7Z" fill="black" />
            </g>
        </svg>